<?xml version="1.0" encoding="utf-8"?>
<!-- Generator: Adobe Illustrator 15.0.0, SVG Export Plug-In . SVG Version: 6.00 Build 0)  -->
<!DOCTYPE svg PUBLIC "-//W3C//DTD SVG 1.1//EN" "http://www.w3.org/Graphics/SVG/1.1/DTD/svg11.dtd">
<svg version="1.1" id="Calque_1" xmlns="http://www.w3.org/2000/svg" xmlns:xlink="http://www.w3.org/1999/xlink" x="0px" y="0px"
	 width="20px" height="20px" viewBox="0 0 20 20" enable-background="new 0 0 20 20" xml:space="preserve">
<path fill="#00643D" d="M20,10.05c0,1.431-0.252,2.752-0.758,3.965c-0.488,1.212-1.178,2.264-2.07,3.156
	c-0.909,0.893-1.97,1.591-3.182,2.096C12.777,19.756,11.456,20,10.025,20c-1.448,0-2.778-0.252-3.99-0.758
	c-1.229-0.505-2.29-1.203-3.182-2.096c-0.909-0.909-1.608-1.97-2.096-3.182C0.252,12.752,0,11.447,0,10.05
	C0,8.62,0.252,7.298,0.758,6.086C1.263,4.857,1.97,3.788,2.879,2.879s1.978-1.616,3.207-2.121C7.298,0.252,8.611,0,10.025,0
	c1.397,0,2.702,0.252,3.914,0.758c1.212,0.488,2.272,1.187,3.182,2.096c0.909,0.892,1.616,1.953,2.121,3.182
	C19.748,7.248,20,8.586,20,10.05z M18.056,10.809H1.944l0.278,1.464h15.606L18.056,10.809z M18.056,9.268l-0.228-1.464H2.222
	L1.944,9.268H18.056z M17.197,13.812H2.803c0.286,0.522,0.623,1.002,1.01,1.439h12.424c0.151-0.235,0.312-0.471,0.479-0.707
	C16.869,14.293,17.029,14.049,17.197,13.812z M17.223,6.288l-0.985-1.465H3.763L2.803,6.288H17.223z M14.545,3.258
	c-1.296-0.893-2.803-1.339-4.52-1.339c-1.633,0-3.14,0.446-4.521,1.339H14.545z M14.545,16.768H5.53
	c1.313,0.859,2.812,1.288,4.495,1.288c0.824,0,1.616-0.101,2.373-0.304C13.14,17.533,13.855,17.205,14.545,16.768z"/>
</svg>
