<?xml version="1.0" encoding="utf-8"?>
<!-- Generator: Adobe Illustrator 15.0.0, SVG Export Plug-In . SVG Version: 6.00 Build 0)  -->
<!DOCTYPE svg PUBLIC "-//W3C//DTD SVG 1.1//EN" "http://www.w3.org/Graphics/SVG/1.1/DTD/svg11.dtd">
<svg version="1.1" id="Calque_1" xmlns="http://www.w3.org/2000/svg" xmlns:xlink="http://www.w3.org/1999/xlink" x="0px" y="0px"
	 width="20px" height="20px" viewBox="0 0 20 20" enable-background="new 0 0 20 20" xml:space="preserve">
<path fill="#00643D" d="M10,4c1.104,0,2-0.896,2-2s-0.896-2-2-2S8,0.896,8,2S8.896,4,10,4z M10,20c1.104,0,2-0.896,2-2s-0.896-2-2-2
	s-2,0.896-2,2S8.896,20,10,20z M4,10c0,1.104-0.896,2-2,2s-2-0.896-2-2s0.896-2,2-2S4,8.896,4,10z M18,12c1.104,0,2-0.896,2-2
	s-0.896-2-2-2s-2,0.896-2,2S16.896,12,18,12z M17.07,5.757c-0.78,0.781-2.047,0.781-2.828,0c-0.781-0.781-0.781-2.047,0-2.829
	c0.781-0.781,2.048-0.781,2.828,0C17.852,3.71,17.852,4.976,17.07,5.757z M2.929,17.07c0.781,0.781,2.047,0.781,2.828,0
	c0.781-0.78,0.781-2.047,0-2.828c-0.781-0.781-2.047-0.781-2.828,0C2.148,15.023,2.148,16.29,2.929,17.07z M5.757,5.757
	c-0.781,0.781-2.047,0.781-2.828,0c-0.781-0.781-0.781-2.047,0-2.829c0.781-0.781,2.047-0.781,2.828,0
	C6.539,3.71,6.539,4.976,5.757,5.757z M14.242,17.07c0.781,0.781,2.048,0.781,2.828,0c0.781-0.78,0.781-2.047,0-2.828
	c-0.78-0.781-2.047-0.781-2.828,0S13.461,16.29,14.242,17.07z"/>
</svg>
